<?xml version="1.0" encoding="UTF-8" standalone="no"?>
<!-- Svg Vector Icons : http://www.onlinewebfonts.com/icon -->

<svg
   xmlns:dc="http://purl.org/dc/elements/1.1/"
   xmlns:cc="http://creativecommons.org/ns#"
   xmlns:rdf="http://www.w3.org/1999/02/22-rdf-syntax-ns#"
   xmlns:svg="http://www.w3.org/2000/svg"
   xmlns="http://www.w3.org/2000/svg"
   xmlns:sodipodi="http://sodipodi.sourceforge.net/DTD/sodipodi-0.dtd"
   xmlns:inkscape="http://www.inkscape.org/namespaces/inkscape"
   version="1.1"
   x="0px"
   y="0px"
   viewBox="0 0 1000 1000"
   enable-background="new 0 0 1000 1000"
   xml:space="preserve"
   id="svg2"
   inkscape:version="0.91 r13725"
   sodipodi:docname="icon.svg"><defs
     id="defs18" /><sodipodi:namedview
     pagecolor="#ffffff"
     bordercolor="#666666"
     borderopacity="1"
     objecttolerance="10"
     gridtolerance="10"
     guidetolerance="10"
     inkscape:pageopacity="0"
     inkscape:pageshadow="2"
     inkscape:window-width="1332"
     inkscape:window-height="704"
     id="namedview16"
     showgrid="false"
     inkscape:zoom="0.236"
     inkscape:cx="-27.542373"
     inkscape:cy="500"
     inkscape:window-x="260"
     inkscape:window-y="27"
     inkscape:window-maximized="0"
     inkscape:current-layer="layer3" /><metadata
     id="metadata4"> Svg Vector Icons : http://www.onlinewebfonts.com/icon <rdf:RDF><cc:Work
     rdf:about=""><dc:format>image/svg+xml</dc:format><dc:type
       rdf:resource="http://purl.org/dc/dcmitype/StillImage" /><dc:title></dc:title></cc:Work></rdf:RDF></metadata><g
     inkscape:groupmode="layer"
     id="layer2"
     inkscape:label="Icon"><g
       id="g6"
       style="fill:#000000"><g
         transform="translate(0.000000,492.000000) scale(0.100000,-0.100000)"
         id="g8"
         style="fill:#000000"><path
           d="M4642.1,4614c-1340.5-105.3-2255.9-712.4-2591.1-1719.7c-30.6-95.8-76.6-281.5-97.7-411.7c-36.4-206.8-40.2-285.3-30.6-628.1c19.2-697.1,136-1106.9,595.6-2104.6c143.6-310.2,174.3-419.4,159-582.2c-26.8-293-264.3-484.5-645.4-522.8c-572.6-55.5-1078.2,486.4-928.8,999.7c68.9,245.1,254.7,304.5,411.7,132.1c155.1-168.5,417.5-162.8,509.4,11.5c51.7,101.5,30.6,273.8-49.8,411.7c-149.4,250.9-417.5,448.1-668.3,488.3c-271.9,44-574.5-74.7-819.6-319.8C109.2-8.9,7.7-539.4,183.9-1217.3c176.2-677.9,622.4-1193.1,1263.9-1457.4c258.5-107.2,683.7-201.1,909.6-201.1c158.9,0,306.4-21.1,306.4-44c0-44-386.8-396.4-566.9-517.1c-358.1-237.5-543.9-302.6-766-264.3c-312.1,55.5-432.8,155.1-660.7,543.9c-76.6,130.2-153.2,185.8-260.4,185.8c-101.5,0-195.3-65.1-250.9-172.3c-42.1-80.4-44.1-103.4-36.4-335.1c13.4-396.4,111.1-643.5,348.5-880.9c482.6-484.5,1514.8-563,2447.4-189.6c578.3,231.7,1053.3,591.8,1501.4,1141.4c109.2,132.1,237.5,277.7,285.3,319.8c105.3,91.9,249,145.5,348.5,126.4c168.5-30.6,272-120.6,576.4-492.2c566.9-695.2,1309.9-1143.3,2137.2-1288.8c231.7-42.1,677.9-46,900.1-11.5c373.4,61.3,658.8,191.5,861.8,394.5c231.7,231.7,333.2,482.6,348.5,867.5c9.6,189.6,5.7,249-21.1,316c-45.9,120.6-124.5,187.7-233.6,201.1c-143.6,15.3-203-28.7-329.4-243.2c-59.4-101.5-141.7-220.2-181.9-264.3c-141.7-153.2-446.2-256.6-670.3-227.9c-137.9,19.2-358.1,111.1-519,216.4c-187.7,122.5-465.4,406-543.9,557.3l-63.2,118.7h239.4c1043.7,0,1811.6,444.3,2154.4,1246.7C9897-1133.1,9952.5-570,9847.2-167.9c-149.4,568.8-595.6,921.1-1080.1,854.1c-551.5-78.5-900.1-706.7-499.8-900.1c74.7-36.4,95.8-40.2,168.5-21.1c46,11.5,128.3,49.8,183.8,88.1c65.1,44,122.6,67,166.6,67c57.5,0,68.9-9.6,93.8-68.9c19.2-44,28.7-130.2,28.7-239.4c0-371.5-199.2-693.3-503.7-815.8c-109.2-44-137.9-47.9-321.7-38.3c-407.9,19.2-674.1,183.9-748.8,463.4c-30.7,111.1-7.7,342.8,49.8,494.1c26.8,70.9,147.5,339,270,593.7c344.7,718.1,406,930.7,423.2,1465c15.3,476.9-36.4,827.3-176.2,1196.9C7599,3777.1,6886.6,4340.1,5929,4533.5C5546,4610.1,5025.1,4642.7,4642.1,4614z M5676.2,4183.1c1005.4-176.2,1624-647.3,1890.2-1443.9c74.7-226,114.9-461.5,126.4-769.9c21.1-499.8-53.6-785.2-394.5-1493.7C6986.1-173.6,6911.5-397.7,6840.6-886c-136-938.4-84.3-1660.4,153.2-2156.4c218.3-457.7,781.4-915.4,1263.9-1030.3c379.2-88.1,810.1,19.2,1089.7,273.8c134.1,120.6,137.9,109.2,36.4-103.4c-143.6-300.7-484.5-457.7-1041.8-480.7c-467.3-19.2-836.9,63.2-1302.2,291.1c-285.4,139.8-471.1,262.4-718.1,476.9c-162.8,141.7-233.6,220.2-555.4,610.9c-149.4,180-327.5,321.7-474.9,379.2c-147.5,57.5-371.5,70.8-501.7,26.8c-235.5-78.5-365.8-187.7-674.1-563c-118.7-143.6-293-333.2-388.7-421.3c-400.2-369.6-923.1-641.5-1465-760.3c-247-55.5-790.9-51.7-1018.8,7.7c-317.9,78.5-526.6,222.2-626.2,430.9c-101.5,212.6-97.7,226,24.9,114.9c132.1-120.6,266.2-199.1,442.4-258.5c111.1-36.4,174.3-44,363.9-44c216.4,0,239.4,3.8,383,63.2c411.7,170.4,911.6,549.6,1131.8,857.9c289.2,406,444.3,1055.2,390.7,1635.4C3315-1125.4,3203.9-775,2924.3-189c-436.6,919.2-586,1398-618.6,1985.9c-19.2,377.3,44,810.1,166.6,1110.7c168.5,423.2,547.7,806.2,1009.2,1026.5c270,126.4,672.2,235.5,1030.3,275.8C4739.8,4234.8,5477.1,4217.6,5676.2,4183.1z M1304.2,284.1c21.1-13.4,15.3-19.2-30.6-19.2c-168.5,0-388.7-151.3-478.8-327.5c-111.1-220.2-137.9-551.5-63.2-794.7c114.9-379.2,409.8-681.8,806.2-825.4c126.4-46,166.6-51.7,407.9-53.6c208.7,0,293,7.7,381.1,34.5c203,63.2,358.1,151.3,482.6,275.8l120.6,116.8l15.3-88.1c28.7-172.4,17.2-689.4-19.2-863.7c-55.5-256.6-24.9-239.4-384.9-226c-467.3,15.3-771.8,84.3-1087.8,243.2c-587.9,294.9-953.7,915.4-953.7,1616.3C499.9-302,576.5-99,768,92.5c136,134.1,283.4,208.7,411.7,208.7C1233.3,303.2,1288.9,293.6,1304.2,284.1z M9129.1,234.3c157-91.9,281.5-279.6,342.8-515.1c42.1-168.5,38.3-522.8-11.5-762.2C9334-1671.2,8966.3-2098.3,8386-2295.5c-262.4-88.1-507.5-124.5-861.8-128.3c-164.7,0-304.5,1.9-310.2,7.7c-42.1,42.1-68.9,787.1-38.3,1020.7l13.4,88.1l86.2-67c195.3-149.4,484.5-247.1,790.9-270c298.8-21.1,570.7,68.9,790.9,262.4c275.8,243.2,421.3,547.7,446.2,936.5c19.2,300.7-61.3,545.8-220.2,666.4C8983.5,295.5,9010.4,303.2,9129.1,234.3z"
           id="path10"
           style="fill:#000000" /><path
           d="M4201.7,1890.8c-189.6-53.6-321.7-365.8-273.8-649.2c44-262.4,218.3-442.4,392.6-409.8c160.9,28.7,289.2,224.1,310.2,463.4C4661.3,1661,4446.8,1959.7,4201.7,1890.8z"
           id="path12"
           style="fill:#000000" /><path
           d="M5645.6,1883.1c-99.6-34.5-157-91.9-220.2-218.3c-46-95.8-51.7-128.3-51.7-298.8c1.9-158.9,9.6-208.7,46-291.1c55.5-124.5,162.8-226,260.4-243.2c239.4-46,455.8,312.1,394.5,651.1C6019.1,1783.5,5839,1952.1,5645.6,1883.1z"
           id="path14"
           style="fill:#000000" /></g></g></g><g
     inkscape:groupmode="layer"
     id="layer3"
     inkscape:label="Background" /></svg>