<?xml version="1.0" encoding="UTF-8" standalone="no"?>
<!-- Svg Vector Icons : http://www.onlinewebfonts.com/icon -->

<svg
   xmlns:dc="http://purl.org/dc/elements/1.1/"
   xmlns:cc="http://creativecommons.org/ns#"
   xmlns:rdf="http://www.w3.org/1999/02/22-rdf-syntax-ns#"
   xmlns:svg="http://www.w3.org/2000/svg"
   xmlns="http://www.w3.org/2000/svg"
   xmlns:sodipodi="http://sodipodi.sourceforge.net/DTD/sodipodi-0.dtd"
   xmlns:inkscape="http://www.inkscape.org/namespaces/inkscape"
   version="1.1"
   x="0px"
   y="0px"
   viewBox="0 0 980 980"
   enable-background="new 0 0 1000 1000"
   xml:space="preserve"
   id="svg2"
   inkscape:version="0.91 r13725"
   sodipodi:docname="octopeer_white.svg"
   width="980"
   height="980"
   inkscape:export-filename="/Users/larsstegman/Documents/Development/ooc-octopeer/src/main/icon128.png"
   inkscape:export-xdpi="11.755102"
   inkscape:export-ydpi="11.755102"><defs
     id="defs18" /><sodipodi:namedview
     pagecolor="#ffffff"
     bordercolor="#666666"
     borderopacity="1"
     objecttolerance="10"
     gridtolerance="10"
     guidetolerance="10"
     inkscape:pageopacity="0"
     inkscape:pageshadow="2"
     inkscape:window-width="1332"
     inkscape:window-height="704"
     id="namedview16"
     showgrid="false"
     inkscape:zoom="0.236"
     inkscape:cx="713.98308"
     inkscape:cy="838.98305"
     inkscape:window-x="84"
     inkscape:window-y="111"
     inkscape:window-maximized="0"
     inkscape:current-layer="layer2"
     showguides="true"
     inkscape:guide-bbox="true" /><metadata
     id="metadata4"> Svg Vector Icons : http://www.onlinewebfonts.com/icon <rdf:RDF><cc:Work
     rdf:about=""><dc:format>image/svg+xml</dc:format><dc:type
       rdf:resource="http://purl.org/dc/dcmitype/StillImage" /><dc:title></dc:title></cc:Work></rdf:RDF></metadata><g
     inkscape:groupmode="layer"
     id="layer2"
     inkscape:label="Icon"
     transform="translate(0,-20)"><g
       id="g6"
       style="fill:#ffffff"
       transform="matrix(1.0000035,0,0,0.99910114,-9.9990718,10.457725)"><g
         transform="matrix(0.1,0,0,-0.1,0,492)"
         id="g8"
         style="fill:#ffffff"><path
           d="M 4642.1,4614 C 3301.6,4508.7 2386.2,3901.6 2051,2894.3 c -30.6,-95.8 -76.6,-281.5 -97.7,-411.7 -36.4,-206.8 -40.2,-285.3 -30.6,-628.1 19.2,-697.1 136,-1106.9 595.6,-2104.6 143.6,-310.2 174.3,-419.4 159,-582.2 -26.8,-293 -264.3,-484.5 -645.4,-522.8 -572.6,-55.5 -1078.2,486.4 -928.8,999.7 68.9,245.1 254.7,304.5 411.7,132.1 155.1,-168.5 417.5,-162.8 509.4,11.5 51.7,101.5 30.6,273.8 -49.8,411.7 C 1825,450.8 1556.9,648 1306.1,688.2 1034.2,732.2 731.6,613.5 486.5,368.4 109.2,-8.9 7.7,-539.4 183.9,-1217.3 c 176.2,-677.9 622.4,-1193.1 1263.9,-1457.4 258.5,-107.2 683.7,-201.1 909.6,-201.1 158.9,0 306.4,-21.1 306.4,-44 0,-44 -386.8,-396.4 -566.9,-517.1 -358.1,-237.5 -543.9,-302.6 -766,-264.3 -312.1,55.5 -432.8,155.1 -660.7,543.9 -76.6,130.2 -153.2,185.8 -260.4,185.8 -101.5,0 -195.3,-65.1 -250.9,-172.3 -42.1,-80.4 -44.1,-103.4 -36.4,-335.1 13.4,-396.4 111.1,-643.5 348.5,-880.9 482.6,-484.5 1514.8,-563 2447.4,-189.6 578.3,231.7 1053.3,591.8 1501.4,1141.4 109.2,132.1 237.5,277.7 285.3,319.8 105.3,91.9 249,145.5 348.5,126.4 168.5,-30.6 272,-120.6 576.4,-492.2 566.9,-695.2 1309.9,-1143.3 2137.2,-1288.8 231.7,-42.1 677.9,-46 900.1,-11.5 373.4,61.3 658.8,191.5 861.8,394.5 231.7,231.7 333.2,482.6 348.5,867.5 9.6,189.6 5.7,249 -21.1,316 -45.9,120.6 -124.5,187.7 -233.6,201.1 -143.6,15.3 -203,-28.7 -329.4,-243.2 -59.4,-101.5 -141.7,-220.2 -181.9,-264.3 -141.7,-153.2 -446.2,-256.6 -670.3,-227.9 -137.9,19.2 -358.1,111.1 -519,216.4 -187.7,122.5 -465.4,406 -543.9,557.3 l -63.2,118.7 239.4,0 c 1043.7,0 1811.6,444.3 2154.4,1246.7 188,438.4 243.5,1001.5 138.2,1403.6 -149.4,568.8 -595.6,921.1 -1080.1,854.1 -551.5,-78.5 -900.1,-706.7 -499.8,-900.1 74.7,-36.4 95.8,-40.2 168.5,-21.1 46,11.5 128.3,49.8 183.8,88.1 65.1,44 122.6,67 166.6,67 57.5,0 68.9,-9.6 93.8,-68.9 19.2,-44 28.7,-130.2 28.7,-239.4 0,-371.5 -199.2,-693.3 -503.7,-815.8 -109.2,-44 -137.9,-47.9 -321.7,-38.3 -407.9,19.2 -674.1,183.9 -748.8,463.4 -30.7,111.1 -7.7,342.8 49.8,494.1 26.8,70.9 147.5,339 270,593.7 344.7,718.1 406,930.7 423.2,1465 15.3,476.9 -36.4,827.3 -176.2,1196.9 C 7599,3777.1 6886.6,4340.1 5929,4533.5 c -383,76.6 -903.9,109.2 -1286.9,80.5 z m 1034.1,-430.9 c 1005.4,-176.2 1624,-647.3 1890.2,-1443.9 74.7,-226 114.9,-461.5 126.4,-769.9 21.1,-499.8 -53.6,-785.2 -394.5,-1493.7 -312.2,-649.2 -386.8,-873.3 -457.7,-1361.6 -136,-938.4 -84.3,-1660.4 153.2,-2156.4 218.3,-457.7 781.4,-915.4 1263.9,-1030.3 379.2,-88.1 810.1,19.2 1089.7,273.8 134.1,120.6 137.9,109.2 36.4,-103.4 C 9240.2,-4203 8899.3,-4360 8342,-4383 c -467.3,-19.2 -836.9,63.2 -1302.2,291.1 -285.4,139.8 -471.1,262.4 -718.1,476.9 -162.8,141.7 -233.6,220.2 -555.4,610.9 -149.4,180 -327.5,321.7 -474.9,379.2 -147.5,57.5 -371.5,70.8 -501.7,26.8 -235.5,-78.5 -365.8,-187.7 -674.1,-563 -118.7,-143.6 -293,-333.2 -388.7,-421.3 -400.2,-369.6 -923.1,-641.5 -1465,-760.3 -247,-55.5 -790.9,-51.7 -1018.8,7.7 -317.9,78.5 -526.6,222.2 -626.2,430.9 -101.5,212.6 -97.7,226 24.9,114.9 132.1,-120.6 266.2,-199.1 442.4,-258.5 111.1,-36.4 174.3,-44 363.9,-44 216.4,0 239.4,3.8 383,63.2 411.7,170.4 911.6,549.6 1131.8,857.9 289.2,406 444.3,1055.2 390.7,1635.4 -38.6,409.8 -149.7,760.2 -429.3,1346.2 -436.6,919.2 -586,1398 -618.6,1985.9 -19.2,377.3 44,810.1 166.6,1110.7 168.5,423.2 547.7,806.2 1009.2,1026.5 270,126.4 672.2,235.5 1030.3,275.8 228,24.9 965.3,7.7 1164.4,-26.8 z m -4372,-3899 c 21.1,-13.4 15.3,-19.2 -30.6,-19.2 -168.5,0 -388.7,-151.3 -478.8,-327.5 -111.1,-220.2 -137.9,-551.5 -63.2,-794.7 114.9,-379.2 409.8,-681.8 806.2,-825.4 126.4,-46 166.6,-51.7 407.9,-53.6 208.7,0 293,7.7 381.1,34.5 203,63.2 358.1,151.3 482.6,275.8 l 120.6,116.8 15.3,-88.1 c 28.7,-172.4 17.2,-689.4 -19.2,-863.7 -55.5,-256.6 -24.9,-239.4 -384.9,-226 -467.3,15.3 -771.8,84.3 -1087.8,243.2 -587.9,294.9 -953.7,915.4 -953.7,1616.3 0.2,325.5 76.8,528.5 268.3,720 136,134.1 283.4,208.7 411.7,208.7 53.6,2 109.2,-7.6 124.5,-17.1 z m 7824.9,-49.8 c 157,-91.9 281.5,-279.6 342.8,-515.1 42.1,-168.5 38.3,-522.8 -11.5,-762.2 -126.4,-628.2 -494.1,-1055.3 -1074.4,-1252.5 -262.4,-88.1 -507.5,-124.5 -861.8,-128.3 -164.7,0 -304.5,1.9 -310.2,7.7 -42.1,42.1 -68.9,787.1 -38.3,1020.7 l 13.4,88.1 86.2,-67 c 195.3,-149.4 484.5,-247.1 790.9,-270 298.8,-21.1 570.7,68.9 790.9,262.4 275.8,243.2 421.3,547.7 446.2,936.5 19.2,300.7 -61.3,545.8 -220.2,666.4 -99.6,74.5 -72.7,82.2 46,13.3 z"
           id="path10"
           style="fill:#ffffff"
           inkscape:connector-curvature="0" /><path
           d="M 4201.7,1890.8 C 4012.1,1837.2 3880,1525 3927.9,1241.6 c 44,-262.4 218.3,-442.4 392.6,-409.8 160.9,28.7 289.2,224.1 310.2,463.4 30.6,365.8 -183.9,664.5 -429,595.6 z"
           id="path12"
           style="fill:#ffffff"
           inkscape:connector-curvature="0" /><path
           d="m 5645.6,1883.1 c -99.6,-34.5 -157,-91.9 -220.2,-218.3 -46,-95.8 -51.7,-128.3 -51.7,-298.8 1.9,-158.9 9.6,-208.7 46,-291.1 55.5,-124.5 162.8,-226 260.4,-243.2 239.4,-46 455.8,312.1 394.5,651.1 -55.5,300.7 -235.6,469.3 -429,400.3 z"
           id="path14"
           style="fill:#ffffff"
           inkscape:connector-curvature="0" /></g></g></g></svg>